<?xml version="1.0" encoding="UTF-8"?>
<svg version="1.1" viewBox="0 0 2048 2048" width="1280" height="1280" xmlns="http://www.w3.org/2000/svg">
<path transform="translate(838)" d="m0 0h367l19 7 14 9 10 9 9 12 7 14 3 11 1 8v77l-3 14-5 13-7 11-9 10-11 9-16 8-17 4-10 1h-36l-1 62h465l26 3 21 6 16 7 16 10 13 10 13 12 13 13 9 11 15 20 13 20 9 15 15 27 14 24 10 18 28 49 14 25 14 24 14 25 9 16 48 84 26 46 10 18 6 16 3 14 1 7v21l-3 17-7 21-9 15-8 11-12 12-11 8-14 8-19 7-14 3-9 1h-15l-14-2-15-4-16-7-13-8-11-9-9-9-11-15-26-46-32-56-13-23-28-49-14-25-14-24-16-29-13-23-15-28-13-21-10-13-8-8-13-8-14-5-15-3-11-1-33-1-205-1 9 17 11 23 46 92 90 1 16 2 12 4 13 7 10 8 7 7 7 10 7 14 4 16v506l-3 9-6 8-10 6-9 2h-7l-11-4-8-7-5-9-2-7v-324h-358l-9-3-8-6-6-9-2-5v-14l4-10 7-8 10-5 5-1h354l2-1v-112l-5-8-4-3-4-1h-853l-7 3-4 5-2 6-1 111h365l10 2 10 7 6 9 3 9v7l-3 10-6 8-6 5-11 4h-368v889l25-1h856v-433l3-9 6-9 9-6 5-2h15l9 4 8 7 5 9 1 4v640l-4 17-8 16-9 12-9 8-13 8-12 5-8 3h-876l-19-7-12-7-10-9-9-10-8-14-5-16-1-7v-1271l4-17 7-14 6-8 9-10 10-8 14-7 14-4 10-1 113-1 10-19 56-112-213-1-1 9-4 12-7 13-9 10-10 7-11 5-11 3-10 1h-94l-16-3-16-8-12-11-7-10-5-10-3-12v-238l3-12 7-14 11-12 9-7 15-7 13-2h98l16 3 12 5 13 10 9 11 6 12 4 14v5h331v-62h-39l-19-3-15-6-13-9-4-3v-2h-2v-2h-2l-10-14-7-14-3-12-1-8v-72l3-16 6-15 8-12 5-6h2l2-4 14-10 11-5zm16 60-9 3-6 7-2 10v58l2 8 6 7 8 3h337l8-2 6-5 3-7v-68l-4-8-7-5-5-1zm98 157v62h140v-62zm-547 63v223l1 1h91l2-2v-219l-1-3zm157 59-2 1v104l944 1 24 1 25 3 20 4 18 6 17 9 11 8 10 9 8 8 12 16 11 17 14 25 15 27 13 24 10 17 14 25 9 15 6 11 10 18 32 56 13 23 40 70 8 10 11 8 8 4 15 3 14-1 13-5 9-6 5-5 6-7 5-10 2-7 1-8v-9l-3-12-8-16-12-22-14-24-14-25-24-42-13-23-16-28-13-23-14-24-12-22-14-24-14-25-14-24-15-27-13-22-12-18-13-17-12-13-9-9-15-11-14-7-13-4-13-2zm280 166-10 19-56 112v2h512l-1-4-14-29-49-98-2-2zm-260 1330-1 1v138l4 7 6 5 3 1h856l8-6 3-4 1-4v-138z"/>
<path transform="translate(741,1115)" d="m0 0h53l28 3 26 5 24 7 21 8 16 8 16 9 16 12 10 9 5 4 7 8 12 16 9 16 8 20 4 19 1 21-2 20-3 14 22 13 3 2 6-1 23-14-2-10-2-12-1-11v-11l3-21 6-20 8-16 8-13 11-14 6-7 8-7 12-10 15-10 18-10 26-11 24-7 24-5 22-3 11-1h54l18 3 13 5 11 6 11 10 8 11 6 16 2 13v11l-4 26-6 24-8 23-9 20-12 22-8 12-9 12-9 11-14 15-3 1v2l-11 9-14 11-19 11-17 8-21 7-15 3-9 1h-19l-19-3-18-6-17-9-11-8-13-12-2-2-5 1-9 6-14 8-1 170-2 16-7 10-8 6-10 3h-9l-11-4-9-8-5-11-1-10v-167l-1-5-25-15-4 1-6 7-14 11-14 8-11 5-16 5-19 3h-19l-19-3-20-6-18-8-15-8-14-10-14-11-22-22-11-14-10-14-12-20-8-16-10-24-7-23-6-31-1-18 3-16 4-11 6-10 10-11 14-9 14-5zm21 60-19 1-7 2-2 2v13l4 20 5 17 10 24 8 15 10 15 11 14 4 5h2l2 4 7 7 14 11 14 9 16 8 15 4 6 1h15l15-4 11-6 3-3-19-12-25-15-16-10-6-7-4-9-1-9 2-9 5-9 9-7 10-3h8l12 4 13 8 40 24 2-1-1-14-4-14-7-14-11-14-10-9-16-11-17-9-21-8-25-6-29-4-20-1zm481 1-30 4-24 6-16 6-17 8-15 10-11 9-9 9-7 10-8 16-3 12-1 13 6-1 23-14 13-8 15-9 11-3h7l10 3 8 6 6 9 2 7v10l-4 11-4 4v2l-4 2-25 15-23 14-11 6 5 5 12 6 13 3h13l15-3 13-5 17-9 16-12 14-13v-2h2l7-8 13-18 9-15 10-21 8-24 5-25 1-8-2-5-9-3z"/>
<path transform="translate(91,366)" d="m0 0h164l11 2 10 6 6 8 4 10v9l-4 11-6 8-10 6-4 1-14 1h-164l-13-2-8-5-8-9-3-7v-15l4-10 4-5 9-6 5-2z"/>
<path transform="translate(254,470)" d="m0 0h8l9 3 6 4 7 8 4 9v14l-6 12-8 7-33 16-28 13-40 19-26 12-8 2h-10l-12-5-8-9-4-8-1-11 3-10 6-9 9-6 16-8 31-15 28-13 35-17 17-7z"/>
<path transform="translate(123,205)" d="m0 0h14l15 6 16 8 25 12 18 8 16 8 38 18 11 8 6 10 1 3v15l-5 10-4 5-10 6-8 2h-7l-13-4-41-20-28-13-52-25-10-9-4-8-1-3v-13l4-10 7-8z"/>
<path transform="translate(578,2047)" d="m0 0 2 1z"/>
</svg>
